<svg xmlns="http://www.w3.org/2000/svg" width="300" height="300" viewBox="0 0 300 300">
<defs>
    <style>
      .cls-1 {
        fill: #1bb869;
        fill-rule: evenodd;
      }
    </style>
  </defs>
  <path class="cls-1" d="M150,0A150,150,0,1,1,0,150,150,150,0,0,1,150,0Zm0,27.273A122.727,122.727,0,1,1,27.273,150,122.727,122.727,0,0,1,150,27.273Zm64.572,100.936-66.023,66.035-7.014,7a9.9,9.9,0,0,1-14.027,0l-7.013-7-35.066-35.1a9.932,9.932,0,0,1,0-14.036l7.014-6.974a9.9,9.9,0,0,1,14.026,0l28.052,28.052,59.012-59a9.869,9.869,0,0,1,14.025,0l7.014,6.979A9.935,9.935,0,0,1,214.572,128.209Z"/>
</svg>
