<svg xmlns="http://www.w3.org/2000/svg" width="300" height="300" viewBox="0 0 300 300">
<defs>
    <style>
      .cls-1 {
        fill: #fff;
        fill-rule: evenodd;
      }
    </style>
  </defs>
  <path class="cls-1" d="M281.251,150.085h-1.726l-31.718,130C245.4,291.082,234.789,300,224.1,300H75.9c-10.689,0-21.3-8.922-23.707-19.914l-31.718-130H18.75C8.4,150.085,0,140.931,0,129.641S8.4,109.2,18.75,109.2h262.5c10.355,0,18.749,9.15,18.749,20.443S291.606,150.085,281.251,150.085ZM162.5,272.755h50c6.9,0,12.5-6.1,12.5-13.635s-5.6-13.631-12.5-13.631h-50v27.266Zm0-54.525H225c6.9,0,12.5-6.1,12.5-13.624s-5.6-13.635-12.5-13.635H162.5V218.23Zm-25-81.773h-75c-6.9,0-12.5,6.107-12.5,13.628s5.6,13.631,12.5,13.631h75V136.457Zm0,54.514H75c-6.9,0-12.5,6.107-12.5,13.635S68.1,218.23,75,218.23h62.5V190.971Zm0,54.518h-50c-6.9,0-12.5,6.107-12.5,13.631s5.6,13.635,12.5,13.635h50V245.489Zm100-109.032h-75v27.259h75c6.9,0,12.5-6.1,12.5-13.631S244.4,136.457,237.5,136.457Zm-13.223-45.9L167.1,28.211a17.608,17.608,0,0,1,0-23.383,14.3,14.3,0,0,1,21.443,0l57.18,62.346a17.612,17.612,0,0,1,0,23.386A14.3,14.3,0,0,1,224.277,90.56Zm-148.553,0a14.3,14.3,0,0,1-21.444,0,17.614,17.614,0,0,1,0-23.386L111.462,4.829a14.3,14.3,0,0,1,21.442,0,17.61,17.61,0,0,1,0,23.383Z"/>
</svg>
