<svg xmlns="http://www.w3.org/2000/svg" width="300" height="560" viewBox="0 0 300 560">
  <defs>
    <style>
      .promo-background {
        fill: #fff;
        fill-rule: evenodd;
        opacity: 0.2;
      }
    </style>
  </defs>
  <path class="promo-background" d="M259.375,140.063h-1.437l-26.432,99.669c-2,8.435-10.848,15.273-19.756,15.273H88.251c-8.907,0-17.752-6.838-19.756-15.273L42.063,140.063H40.626a15.677,15.677,0,0,1,0-31.353h218.75A15.677,15.677,0,0,1,259.375,140.063Zm-98.958,94.044h41.667a10.449,10.449,0,0,0,0-20.9H160.417v20.9Zm0-41.8H212.5a10.448,10.448,0,0,0,0-20.9H160.417v20.9Zm-20.833-62.7h-62.5a10.45,10.45,0,0,0,0,20.9h62.5v-20.9Zm0,41.8H87.5a10.448,10.448,0,0,0,0,20.9h52.084v-20.9Zm0,41.8H97.917a10.449,10.449,0,0,0,0,20.9h41.667v-20.9Zm83.334-83.6h-62.5v20.9h62.5A10.45,10.45,0,0,0,222.918,129.609ZM211.9,94.421l-47.651-47.8A12.654,12.654,0,0,1,182.116,28.7l47.651,47.8A12.655,12.655,0,0,1,211.9,94.421Zm-123.795,0A12.655,12.655,0,0,1,70.234,76.5l47.651-47.8a12.654,12.654,0,1,1,17.869,17.922ZM409.375,420.063h-1.437l-26.432,99.669c-2,8.435-10.848,15.273-19.756,15.273h-123.5c-8.908,0-17.753-6.838-19.756-15.273l-26.432-99.669h-1.437a15.677,15.677,0,0,1,0-31.353H409.375A15.677,15.677,0,0,1,409.375,420.063Zm-98.958,94.044h41.667a10.449,10.449,0,0,0,0-20.9H310.417v20.9Zm0-41.8H362.5a10.448,10.448,0,0,0,0-20.9H310.417v20.9Zm-20.833-62.7h-62.5a10.45,10.45,0,0,0,0,20.9h62.5v-20.9Zm0,41.8H237.5a10.448,10.448,0,0,0,0,20.9h52.083v-20.9Zm0,41.8H247.917a10.449,10.449,0,0,0,0,20.9h41.667v-20.9Zm83.334-83.6h-62.5v20.9h62.5A10.45,10.45,0,0,0,372.918,409.609ZM361.9,374.421l-47.651-47.8A12.654,12.654,0,0,1,332.116,308.7l47.651,47.8A12.655,12.655,0,0,1,361.9,374.421Zm-123.8,0A12.655,12.655,0,0,1,220.234,356.5l47.651-47.8a12.654,12.654,0,1,1,17.869,17.922ZM109.375,420.063h-1.437L81.506,519.732c-2,8.435-10.848,15.273-19.756,15.273h-123.5c-8.907,0-17.752-6.838-19.756-15.273l-26.432-99.669h-1.437A15.65,15.65,0,0,1-125,404.388a15.652,15.652,0,0,1,15.625-15.678H109.375A15.677,15.677,0,0,1,109.375,420.063ZM10.417,514.107H52.084a10.449,10.449,0,0,0,0-20.9H10.417v20.9Zm0-41.8H62.5a10.448,10.448,0,0,0,0-20.9H10.417v20.9Zm-20.833-62.7h-62.5a10.437,10.437,0,0,0-10.417,10.454,10.43,10.43,0,0,0,10.417,10.446h62.5v-20.9Zm0,41.8H-62.5A10.431,10.431,0,0,0-72.916,461.86,10.433,10.433,0,0,0-62.5,472.309h52.083v-20.9Zm0,41.8H-52.083A10.431,10.431,0,0,0-62.5,503.656a10.432,10.432,0,0,0,10.417,10.451h41.666v-20.9Zm83.334-83.6h-62.5v20.9h62.5A10.45,10.45,0,0,0,72.918,409.609ZM61.9,374.421l-47.651-47.8A12.654,12.654,0,1,1,32.116,308.7l47.651,47.8A12.655,12.655,0,0,1,61.9,374.421Zm-123.8,0a12.609,12.609,0,0,1-17.869,0,12.7,12.7,0,0,1,0-17.925l47.651-47.8a12.605,12.605,0,0,1,17.869,0,12.7,12.7,0,0,1,0,17.922Z"/>
</svg>