<svg xmlns="http://www.w3.org/2000/svg" width="320" height="560" viewBox="0 0 300 560">
  <defs>
    <style>
      .promo-background {
        fill: #fff;
        fill-rule: evenodd;
        opacity: 0.2;
      }
    </style>
  </defs>
  <path class="promo-background" d="M263.75,215.461h-5.962a37.728,37.728,0,0,0-74.741,0H116.954a37.728,37.728,0,0,0-74.741,0H36.25A16.265,16.265,0,0,1,20,199.186V128.651a48.273,48.273,0,0,1,5.375-20.263L57.959,62.123c2.969-5.2,10.225-9.413,16.208-9.413h27.084A16.262,16.262,0,0,1,117.5,68.986v70.522H263.75A16.263,16.263,0,0,1,280,155.782v43.4A16.265,16.265,0,0,1,263.75,215.461ZM95.834,74.409H74.167l-32.5,54.242H95.834V74.409ZM263.75,128.651H144.584a16.261,16.261,0,0,1-16.25-16.273V47.28A16.264,16.264,0,0,1,144.584,31H263.75A16.264,16.264,0,0,1,280,47.28v65.1A16.261,16.261,0,0,1,263.75,128.651Zm-184.166,65.1A27.129,27.129,0,1,1,52.5,220.882,27.11,27.11,0,0,1,79.584,193.753Zm140.833,0a27.129,27.129,0,1,1-27.083,27.129A27.11,27.11,0,0,1,220.417,193.753ZM413.75,489.461h-5.962a37.728,37.728,0,0,0-74.741,0H266.954a37.728,37.728,0,0,0-74.741,0H186.25A16.266,16.266,0,0,1,170,473.186V402.651a48.281,48.281,0,0,1,5.375-20.263l32.584-46.265c2.969-5.2,10.225-9.413,16.208-9.413h27.084A16.262,16.262,0,0,1,267.5,342.985v70.522H413.75A16.263,16.263,0,0,1,430,429.782v43.4A16.265,16.265,0,0,1,413.75,489.461ZM245.834,348.409H224.167l-32.5,54.242h54.167V348.409ZM413.75,402.651H294.584a16.261,16.261,0,0,1-16.25-16.273v-65.1A16.264,16.264,0,0,1,294.584,305H413.75A16.264,16.264,0,0,1,430,321.28v65.1A16.261,16.261,0,0,1,413.75,402.651Zm-184.166,65.1A27.129,27.129,0,1,1,202.5,494.882,27.11,27.11,0,0,1,229.584,467.753Zm140.833,0a27.129,27.129,0,1,1-27.083,27.129A27.11,27.11,0,0,1,370.417,467.753ZM113.75,489.461h-5.962a37.728,37.728,0,0,0-74.741,0H-33.046a37.825,37.825,0,0,0-37.371-32.548,37.826,37.826,0,0,0-37.371,32.548h-5.963A16.266,16.266,0,0,1-130,473.186V402.651a48.281,48.281,0,0,1,5.375-20.263l32.584-46.265c2.969-5.2,10.225-9.413,16.208-9.413h27.083A16.263,16.263,0,0,1-32.5,342.985v70.522H113.75A16.263,16.263,0,0,1,130,429.782v43.4A16.265,16.265,0,0,1,113.75,489.461ZM-54.166,348.409H-75.833l-32.5,54.242h54.167V348.409ZM113.75,402.651H-5.416a16.261,16.261,0,0,1-16.25-16.273v-65.1A16.265,16.265,0,0,1-5.416,305H113.75A16.264,16.264,0,0,1,130,321.28v65.1A16.261,16.261,0,0,1,113.75,402.651Zm-184.166,65.1a27.11,27.11,0,0,1,27.084,27.129,27.109,27.109,0,0,1-27.084,27.129A27.108,27.108,0,0,1-97.5,494.882,27.11,27.11,0,0,1-70.416,467.753Zm140.833,0a27.129,27.129,0,1,1-27.083,27.129A27.11,27.11,0,0,1,70.417,467.753Z"/>
</svg>