<svg xmlns="http://www.w3.org/2000/svg" width="280" height="560" viewBox="0 0 300 560">
  <defs>
    <style>
      .promo-background {
        fill: #fff;
        fill-rule: evenodd;
        opacity: 0.2;
      }
    </style>
  </defs>
  <path class="promo-background" d="M255,99.882H160V48.307c8.612-10.845,17.184-20.458,22.842-23.713,15.49-8.906,34.828-4.436,43.19,9.99,6.585,11.359,4.3,25.431-4.488,35.275H255A15.011,15.011,0,0,1,255,99.882ZM208.63,44.591c-2.8-4.823-10.254-5.749-16.654-2.074S164.92,69.724,164.92,69.724s30.784-6.055,37.185-9.732S211.428,49.418,208.63,44.591ZM140,99.882H45A15.011,15.011,0,0,1,45,69.86H78.457c-8.787-9.844-11.073-23.917-4.488-35.275,8.362-14.426,27.7-18.9,43.189-9.99,5.651,3.25,14.229,12.859,22.843,23.7V99.882ZM108.025,42.518c-6.4-3.676-13.857-2.749-16.655,2.074s0.124,11.718,6.525,15.4,37.186,9.732,37.186,9.732S114.426,46.2,108.025,42.518ZM75,109.891h65V260.006H75a15.007,15.007,0,0,1-15-15.014V124.9A15.007,15.007,0,0,1,75,109.891Zm150,0A15.007,15.007,0,0,1,240,124.9V244.992a15.007,15.007,0,0,1-15,15.014H160V109.891h65Zm180,269.97H310V328.28c8.612-10.847,17.184-20.461,22.842-23.716,15.49-8.908,34.828-4.437,43.19,9.991,6.585,11.36,4.3,25.435-4.488,35.28H405A15.013,15.013,0,0,1,405,379.861Zm-46.37-55.3c-2.8-4.823-10.254-5.75-16.654-2.074S314.92,349.7,314.92,349.7s30.784-6.056,37.185-9.734S361.428,329.391,358.63,324.563ZM290,379.861H195a15.013,15.013,0,0,1,0-30.026h33.457c-8.787-9.845-11.073-23.92-4.488-35.28,8.362-14.428,27.7-18.9,43.189-9.991,5.651,3.25,14.229,12.861,22.843,23.7v51.594Zm-31.976-57.372c-6.4-3.676-13.857-2.749-16.655,2.074s0.124,11.72,6.526,15.4,37.186,9.734,37.186,9.734S264.426,326.171,258.025,322.489ZM225,389.871h65V540.006H225a15.008,15.008,0,0,1-15-15.016v-120.1A15.009,15.009,0,0,1,225,389.871Zm150,0a15.008,15.008,0,0,1,15,15.015v120.1a15.008,15.008,0,0,1-15,15.016H310V389.871h65Zm-270-10.01H10V328.28c8.611-10.847,17.184-20.461,22.842-23.716,15.49-8.908,34.827-4.437,43.19,9.991,6.584,11.36,4.3,25.435-4.489,35.28H105A15.013,15.013,0,0,1,105,379.861Zm-46.37-55.3c-2.8-4.823-10.254-5.75-16.655-2.074S14.92,349.7,14.92,349.7s30.785-6.056,37.186-9.734S61.428,329.391,58.63,324.563ZM-10,379.861h-95a15.007,15.007,0,0,1-15-15.012,15.007,15.007,0,0,1,15-15.014h33.457c-8.787-9.845-11.073-23.92-4.488-35.28,8.362-14.428,27.7-18.9,43.189-9.991,5.651,3.25,14.228,12.861,22.842,23.7v51.594Zm-31.975-57.372c-6.4-3.676-13.858-2.749-16.655,2.074s0.124,11.72,6.525,15.4,37.186,9.734,37.186,9.734S-35.574,326.171-41.974,322.489ZM-75,389.871h65V540.006H-75A15.008,15.008,0,0,1-90,524.99v-120.1A15.009,15.009,0,0,1-75,389.871Zm150,0a15.009,15.009,0,0,1,15,15.015v120.1a15.008,15.008,0,0,1-15,15.016H10V389.871H75Z"/>
</svg>