<svg xmlns="http://www.w3.org/2000/svg" width="168" height="300" viewBox="0 0 168 300">
<defs>
    <style>
      .cls-1 {
        fill: #ffffff;
        fill-rule: evenodd;
      }
    </style>
  </defs>
  <path id="Arrow_Icon" data-name="Arrow Icon" class="cls-1" d="M73.016,35.86L185.469,150.042,71.638,265.6l0.005,0.023a20.381,20.381,0,0,0,14.48,34.455,19.884,19.884,0,0,0,13.963-5.7l0,0.023L227.849,164.739h0A20.478,20.478,0,0,0,234,150.071l0-.029c0-.017,0-0.046,0-0.046a20.385,20.385,0,0,0-6.157-14.645h0L100.091,5.688l-0.05.052A20,20,0,0,0,86.123.084,20.388,20.388,0,0,0,73.016,35.86Z" transform="translate(-66 -0.094)"/>
</svg>
