<svg xmlns="http://www.w3.org/2000/svg" width="300" height="300" viewBox="0 0 300 300">
  <metadata><?xpacket begin="﻿" id="W5M0MpCehiHzreSzNTczkc9d"?>
<x:xmpmeta xmlns:x="adobe:ns:meta/" x:xmptk="Adobe XMP Core 5.6-c138 79.159824, 2016/09/14-01:09:01        ">
   <rdf:RDF xmlns:rdf="http://www.w3.org/1999/02/22-rdf-syntax-ns#">
      <rdf:Description rdf:about=""/>
   </rdf:RDF>
</x:xmpmeta>
                                                                                                    
                                                                                                    
                                                                                                    
                                                                                                    
                                                                                                    
                                                                                                    
                                                                                                    
                                                                                                    
                                                                                                    
                                                                                                    
                                                                                                    
                                                                                                    
                                                                                                    
                                                                                                    
                                                                                                    
                                                                                                    
                                                                                                    
                                                                                                    
                                                                                                    
                                                                                                    
                           
<?xpacket end="w"?></metadata>
<defs>
    <style>
      .cls-1 {
        fill: #aaa;
        fill-rule: evenodd;
      }
    </style>
  </defs>
  <path id="Arrow_Left" data-name="Arrow Left" class="cls-1" d="M150,0A150,150,0,1,1,0,150,150,150,0,0,1,150,0Zm0,12.5A137.5,137.5,0,1,1,12.5,150,137.5,137.5,0,0,1,150,12.5ZM102.915,156.974l66.341,64.867c4.048,3.959,10.782,3.79,15.044-.377a10.246,10.246,0,0,0,.385-14.706l-58.243-56.953,58.243-56.949A10.246,10.246,0,0,0,184.3,78.15c-4.262-4.167-11-4.336-15.044-.377l-66.341,64.868a9.684,9.684,0,0,0-2.886,6.749c-0.007.139-.028,0.281-0.03,0.415s0.023,0.277.03,0.419A9.688,9.688,0,0,0,102.915,156.974Z"/>
</svg>
