<svg xmlns="http://www.w3.org/2000/svg" width="280" height="280" viewBox="0 0 280 280">
  <defs>
    <style>
      .cls-1 {
        fill: #1bb869;
        fill-rule: evenodd;
      }
    </style>
  </defs>
  <path
    class="cls-1"
    d="M150,10.026a140,140,0,1,1-140,140A140,140,0,0,1,150,10.026ZM216.3,127.6l-67.784,67.781-7.2,7.187a10.185,10.185,0,0,1-14.4,0l-7.2-7.187-36-36.011a10.194,10.194,0,0,1,0-14.41l7.2-7.188a10.188,10.188,0,0,1,14.4,0l28.8,28.8L194.7,105.994a10.158,10.158,0,0,1,14.4,0l7.2,7.189A10.2,10.2,0,0,1,216.3,127.6Z" transform="translate(-10 -10.031)"/>
</svg>
